<?xml version="1.0" encoding="UTF-8"?>
<svg width="350px" height="150px" viewBox="0 0 350 150" version="1.1" xmlns="http://www.w3.org/2000/svg" xmlns:xlink="http://www.w3.org/1999/xlink">
    <!-- Generator: Sketch 52.2 (67145) - http://www.bohemiancoding.com/sketch -->
    <title>Lockups/Red Roundel + Black Text (horizontal)</title>
    <desc>Created with Sketch.</desc>
    <g id="Lockups/Red-Roundel-+-Black-Text-(horizontal)" stroke="none" stroke-width="1" fill="none" fill-rule="evenodd">
        <g id="lockups/Red-Roundel-+-Black-Text-(horizontal)" transform="translate(40.000000, 48.000000)">
            <g id="Group">
                <g id="Pocket-Casts-Roundel---Red">
                    <g id="Group">
                        <path d="M54,27 C54,41.912 41.912,54 27,54 C12.088,54 0,41.912 0,27 C0,12.088 12.088,0 27,0 C41.912,0 54,12.088 54,27" id="Fill-23" fill="#F43E37"></path>
                        <g id="Glyph" transform="translate(6.000000, 6.000000)" fill="#FFFFFF">
                            <path d="M0,21 C0,9.40202025 9.40202025,0 21,0 C32.5979797,0 42,9.40202025 42,21 L36.75,21 C36.75,12.3015152 29.6984848,5.25 21,5.25 C12.3015152,5.25 5.25,12.3015152 5.25,21 C5.25,29.6984848 12.3015152,36.75 21,36.75 L21,42 C9.40202025,42 0,32.5979797 0,21 Z M21,33.6 C14.0412122,33.6 8.4,27.9587878 8.4,21 C8.4,14.0412122 14.0412122,8.4 21,8.4 C27.9587878,8.4 33.6,14.0412122 33.6,21 L29.0181818,21 C29.0181818,16.5716805 25.4283195,12.9818182 21,12.9818182 C16.5716805,12.9818182 12.9818182,16.5716805 12.9818182,21 C12.9818182,25.4283195 16.5716805,29.0181818 21,29.0181818 L21,33.6 Z" id="Path"></path>
                        </g>
                    </g>
                </g>
                <g id="Group-29" transform="translate(71.000000, 11.000000)" fill="#000000">
                    <path d="M8.2402,17.3032 C11.3482,17.3032 12.9022,15.6232 12.9022,12.0522 C12.9022,8.3972 11.3482,7.0112 8.3242,7.0112 L6.8112,7.0112 L6.8112,17.3032 L8.2402,17.3032 Z M0.3432,31.0392 L0.3432,1.6342 L8.3242,1.6342 C15.5072,1.6342 19.3722,5.0372 19.3722,11.8422 C19.3722,19.4452 14.7932,22.5962 8.4922,22.5962 L6.8532,22.5962 L6.8532,31.0392 L0.3432,31.0392 Z" id="Fill-1"></path>
                    <path d="M28.8623,13.9844 C26.9713,13.9844 25.7963,16.0014 25.7963,20.1174 C25.7963,24.2764 27.0133,26.3344 28.9463,26.3344 C30.8363,26.3344 32.0543,24.2764 32.0543,20.1594 C32.0543,16.0014 30.7943,13.9844 28.8623,13.9844 M28.9043,31.4594 C23.9473,31.4594 19.9983,27.6364 19.9983,20.2014 C19.9983,12.6824 23.9893,8.8174 28.9463,8.8174 C33.8613,8.8174 37.8513,12.6824 37.8513,20.1174 C37.8513,27.5944 33.8613,31.4594 28.9043,31.4594" id="Fill-3"></path>
                    <path d="M48.5596,31.3755 C42.7206,31.3755 39.2756,27.3005 39.2756,20.2015 C39.2756,13.2705 42.8046,8.9015 48.8956,8.9015 C50.8286,8.9015 52.2976,9.2795 53.7266,9.8255 L52.8016,15.1185 C51.7936,14.6565 50.6186,14.2785 49.3996,14.2785 C46.5846,14.2785 45.1156,16.7145 45.1156,20.1175 C45.1156,23.8145 46.5846,25.9985 49.4836,25.9985 C50.5766,25.9985 51.7096,25.6625 52.9276,25.2005 L53.8526,30.2835 C52.3816,30.9135 50.4506,31.3755 48.5596,31.3755" id="Fill-5"></path>
                    <polygon id="Fill-7" points="62.124 20.6216 62.124 31.0396 56.033 31.0396 56.033 0.7516 62.124 0.7516 62.124 18.6896 67.081 9.2796 73.76 9.2796 67.837 19.6976 73.928 31.0396 67.165 31.0396"></polygon>
                    <path d="M84.7207,18.6895 C84.5947,15.4125 83.6277,13.4805 81.7807,13.4805 C79.8897,13.4805 78.9237,15.4965 78.7967,18.6895 L84.7207,18.6895 Z M73.1257,20.2435 C73.1257,12.7665 76.9497,8.8175 81.7807,8.8175 C86.9047,8.8175 90.3497,12.7245 90.3497,20.3695 L90.3497,22.3445 L78.7967,22.3445 C79.0077,25.3265 80.6457,26.7965 83.3337,26.7965 C84.9307,26.7965 86.8207,26.2925 88.5427,25.4945 L89.6357,29.7795 C87.5347,30.8295 85.0567,31.3755 82.7037,31.3755 C77.3687,31.3755 73.1257,28.5615 73.1257,20.2435 Z" id="Fill-9"></path>
                    <path d="M93.6221,24.5283 L93.6221,14.2783 L91.2691,14.2783 L91.2691,9.2793 L93.6221,9.2793 L93.6221,3.5673 L99.6711,3.5673 L99.6711,9.2793 L104.2921,9.2793 L104.2921,14.2783 L99.6711,14.2783 L99.6711,23.6463 C99.6711,25.4523 100.6381,26.2083 102.2751,26.2083 C102.9901,26.2083 103.6201,26.0823 104.2921,25.9143 L104.2921,30.8713 C103.3681,31.1653 102.0651,31.3333 100.5541,31.3333 C95.9331,31.3333 93.6221,29.4433 93.6221,24.5283" id="Fill-11"></path>
                    <path d="M124.7451,31.3755 C117.0991,31.3755 112.3101,26.5025 112.3101,16.3785 C112.3101,6.6335 117.2251,1.2985 124.7871,1.2985 C127.3081,1.2985 129.4081,1.8025 131.0461,2.4325 L130.0381,8.3975 C128.7361,7.8515 127.2241,7.3475 125.4171,7.3475 C121.3851,7.3475 118.9901,10.5405 118.9901,16.2945 C118.9901,22.2175 121.2591,25.3265 125.5431,25.3265 C127.1821,25.3265 128.7361,24.9065 130.0801,24.3185 L131.1301,30.1155 C129.3241,30.8715 127.0981,31.3755 124.7451,31.3755" id="Fill-13"></path>
                    <path d="M143.1406,26.419 L143.1406,21.252 C142.5526,21.126 141.8806,21.084 141.1666,21.084 C139.9066,21.084 139.1926,21.336 138.6886,21.798 C138.2266,22.302 137.9736,23.058 137.9736,24.15 C137.9736,26.335 138.9406,27.217 140.6196,27.217 C141.4606,27.217 142.3426,26.881 143.1406,26.419 M138.0996,31.334 C134.6976,31.334 132.3026,29.149 132.3026,24.444 C132.3026,22.344 132.8916,20.58 134.0256,19.487 C135.2436,18.227 137.0496,17.597 139.7806,17.597 C140.9566,17.597 142.1326,17.765 143.1406,17.975 L143.1406,16.757 C143.1406,14.909 142.3006,13.9 140.0326,13.9 C138.2686,13.9 136.3776,14.405 134.6976,15.119 L133.5636,10.498 C135.7476,9.616 138.3106,8.944 141.1246,8.944 C146.6276,8.944 149.1066,11.296 149.1066,16.295 L149.1066,27.175 L149.5686,31.04 L144.2756,31.04 L143.5196,29.149 C141.9226,30.536 140.3686,31.334 138.0996,31.334" id="Fill-15"></path>
                    <path d="M159.2256,31.4175 C156.2856,31.4175 153.5546,30.6615 151.2026,29.4015 L152.4206,24.4865 C154.7316,25.7465 157.0406,26.5025 159.1416,26.5025 C160.6966,26.5025 161.5366,25.8305 161.5366,24.9065 C161.5366,23.9825 161.0326,23.5625 158.0916,22.3865 C154.0166,20.7475 152.0006,19.1935 152.0006,15.5385 C152.0006,11.5055 154.7736,8.9015 159.6456,8.9015 C162.1236,8.9015 164.3926,9.4895 166.4516,10.4985 L165.2326,15.4125 C163.3426,14.4465 161.4106,13.8165 159.6456,13.8165 C158.3436,13.8165 157.6296,14.3625 157.6296,15.2445 C157.6296,16.0845 158.0916,16.5045 160.9906,17.6815 C165.5696,19.4875 167.1646,21.1675 167.1646,24.6125 C167.1646,29.1495 163.9726,31.4175 159.2256,31.4175" id="Fill-17"></path>
                    <path d="M170.6484,24.5283 L170.6484,14.2783 L168.2954,14.2783 L168.2954,9.2793 L170.6484,9.2793 L170.6484,3.5673 L176.6974,3.5673 L176.6974,9.2793 L181.3184,9.2793 L181.3184,14.2783 L176.6974,14.2783 L176.6974,23.6463 C176.6974,25.4523 177.6644,26.2083 179.3014,26.2083 C180.0164,26.2083 180.6464,26.0823 181.3184,25.9143 L181.3184,30.8713 C180.3944,31.1653 179.0914,31.3333 177.5804,31.3333 C172.9594,31.3333 170.6484,29.4433 170.6484,24.5283" id="Fill-19"></path>
                    <path d="M191.1865,31.4175 C188.2465,31.4175 185.5155,30.6615 183.1635,29.4015 L184.3815,24.4865 C186.6925,25.7465 189.0015,26.5025 191.1025,26.5025 C192.6575,26.5025 193.4975,25.8305 193.4975,24.9065 C193.4975,23.9825 192.9935,23.5625 190.0525,22.3865 C185.9775,20.7475 183.9615,19.1935 183.9615,15.5385 C183.9615,11.5055 186.7345,8.9015 191.6065,8.9015 C194.0845,8.9015 196.3535,9.4895 198.4125,10.4985 L197.1935,15.4125 C195.3035,14.4465 193.3715,13.8165 191.6065,13.8165 C190.3045,13.8165 189.5905,14.3625 189.5905,15.2445 C189.5905,16.0845 190.0525,16.5045 192.9515,17.6815 C197.5305,19.4875 199.1255,21.1675 199.1255,24.6125 C199.1255,29.1495 195.9335,31.4175 191.1865,31.4175" id="Fill-21"></path>
                </g>
            </g>
        </g>
    </g>
</svg>