<?xml version="1.0" encoding="UTF-8"?>
<svg width="350px" height="150px" viewBox="0 0 350 150" version="1.1" xmlns="http://www.w3.org/2000/svg" xmlns:xlink="http://www.w3.org/1999/xlink">
    <!-- Generator: Sketch 52.2 (67145) - http://www.bohemiancoding.com/sketch -->
    <title>Lockups/Red Roundel + White Text (horizontal)</title>
    <desc>Created with Sketch.</desc>
    <g id="Lockups/Red-Roundel-+-White-Text-(horizontal)" stroke="none" stroke-width="1" fill="none" fill-rule="evenodd">
        <g transform="translate(40.000000, 48.000000)" id="Group">
            <g>
                <g id="Pocket-Casts-Roundel---Red">
                    <g id="Group">
                        <path d="M54,27 C54,41.912 41.912,54 27,54 C12.088,54 0,41.912 0,27 C0,12.088 12.088,0 27,0 C41.912,0 54,12.088 54,27" id="Fill-23" fill="#F43E37"></path>
                        <g id="Glyph" transform="translate(6.000000, 6.000000)" fill="#FFFFFF">
                            <path d="M0,21 C0,9.40202025 9.40202025,0 21,0 C32.5979797,0 42,9.40202025 42,21 L36.75,21 C36.75,12.3015152 29.6984848,5.25 21,5.25 C12.3015152,5.25 5.25,12.3015152 5.25,21 C5.25,29.6984848 12.3015152,36.75 21,36.75 L21,42 C9.40202025,42 0,32.5979797 0,21 Z M21,33.6 C14.0412122,33.6 8.4,27.9587878 8.4,21 C8.4,14.0412122 14.0412122,8.4 21,8.4 C27.9587878,8.4 33.6,14.0412122 33.6,21 L29.0181818,21 C29.0181818,16.5716805 25.4283195,12.9818182 21,12.9818182 C16.5716805,12.9818182 12.9818182,16.5716805 12.9818182,21 C12.9818182,25.4283195 16.5716805,29.0181818 21,29.0181818 L21,33.6 Z" id="Path"></path>
                        </g>
                    </g>
                </g>
                <g id="Group-30" transform="translate(70.000000, 11.000000)" fill="#FFFFFF">
                    <path d="M8.2402,17.3034 C11.3482,17.3034 12.9022,15.6224 12.9022,12.0524 C12.9022,8.3974 11.3482,7.0114 8.3242,7.0114 L6.8112,7.0114 L6.8112,17.3034 L8.2402,17.3034 Z M0.3432,31.0394 L0.3432,1.6344 L8.3242,1.6344 C15.5072,1.6344 19.3722,5.0364 19.3722,11.8424 C19.3722,19.4454 14.7932,22.5964 8.4922,22.5964 L6.8532,22.5964 L6.8532,31.0394 L0.3432,31.0394 Z" id="Fill-1"></path>
                    <path d="M29.0723,13.9841 C27.1813,13.9841 26.0063,16.0011 26.0063,20.1181 C26.0063,24.2761 27.2233,26.3351 29.1563,26.3351 C31.0463,26.3351 32.2643,24.2761 32.2643,20.1601 C32.2643,16.0011 31.0043,13.9841 29.0723,13.9841 M29.1143,31.4601 C24.1573,31.4601 20.2083,27.6361 20.2083,20.2021 C20.2083,12.6821 24.1993,8.8171 29.1563,8.8171 C34.0713,8.8171 38.0613,12.6821 38.0613,20.1181 C38.0613,27.5941 34.0713,31.4601 29.1143,31.4601" id="Fill-3"></path>
                    <path d="M49.1055,31.3757 C43.2665,31.3757 39.8215,27.3007 39.8215,20.2017 C39.8215,13.2707 43.3505,8.9017 49.4415,8.9017 C51.3745,8.9017 52.8435,9.2797 54.2725,9.8257 L53.3475,15.1187 C52.3395,14.6567 51.1645,14.2787 49.9455,14.2787 C47.1305,14.2787 45.6615,16.7147 45.6615,20.1177 C45.6615,23.8137 47.1305,25.9987 50.0295,25.9987 C51.1225,25.9987 52.2555,25.6627 53.4735,25.2007 L54.3985,30.2827 C52.9275,30.9137 50.9965,31.3757 49.1055,31.3757" id="Fill-5"></path>
                    <polygon id="Fill-7" points="62.8799 20.6217 62.8799 31.0397 56.7889 31.0397 56.7889 0.7517 62.8799 0.7517 62.8799 18.6887 67.8369 9.2797 74.5159 9.2797 68.5929 19.6977 74.6839 31.0397 67.9209 31.0397"></polygon>
                    <path d="M85.6445,18.6891 C85.5185,15.4131 84.5515,13.4801 82.7045,13.4801 C80.8135,13.4801 79.8475,15.4971 79.7205,18.6891 L85.6445,18.6891 Z M74.0495,20.2441 C74.0495,12.7661 77.8735,8.8171 82.7045,8.8171 C87.8285,8.8171 91.2735,12.7241 91.2735,20.3701 L91.2735,22.3441 L79.7205,22.3441 C79.9315,25.3271 81.5695,26.7961 84.2575,26.7961 C85.8545,26.7961 87.7445,26.2931 89.4665,25.4951 L90.5595,29.7791 C88.4585,30.8301 85.9805,31.3761 83.6275,31.3761 C78.2925,31.3761 74.0495,28.5611 74.0495,20.2441 Z" id="Fill-9"></path>
                    <path d="M94.7558,24.528 L94.7558,14.279 L92.4028,14.279 L92.4028,9.28 L94.7558,9.28 L94.7558,3.567 L100.8048,3.567 L100.8048,9.28 L105.4258,9.28 L105.4258,14.279 L100.8048,14.279 L100.8048,23.646 C100.8048,25.453 101.7718,26.209 103.4088,26.209 C104.1238,26.209 104.7538,26.083 105.4258,25.915 L105.4258,30.872 C104.5018,31.166 103.1988,31.334 101.6878,31.334 C97.0668,31.334 94.7558,29.443 94.7558,24.528" id="Fill-11"></path>
                    <path d="M126.0898,31.3757 C118.4438,31.3757 113.6548,26.5027 113.6548,16.3787 C113.6548,6.6337 118.5698,1.2987 126.1318,1.2987 C128.6528,1.2987 130.7528,1.8027 132.3908,2.4327 L131.3828,8.3967 C130.0808,7.8517 128.5688,7.3477 126.7618,7.3477 C122.7298,7.3477 120.3348,10.5397 120.3348,16.2947 C120.3348,22.2177 122.6038,25.3267 126.8878,25.3267 C128.5268,25.3267 130.0808,24.9057 131.4248,24.3177 L132.4748,30.1147 C130.6688,30.8717 128.4428,31.3757 126.0898,31.3757" id="Fill-13"></path>
                    <path d="M144.6943,26.4186 L144.6943,21.2516 C144.1063,21.1256 143.4343,21.0836 142.7203,21.0836 C141.4603,21.0836 140.7463,21.3356 140.2423,21.7976 C139.7803,22.3026 139.5273,23.0586 139.5273,24.1496 C139.5273,26.3346 140.4943,27.2166 142.1733,27.2166 C143.0143,27.2166 143.8963,26.8806 144.6943,26.4186 M139.6543,31.3336 C136.2513,31.3336 133.8563,29.1486 133.8563,24.4436 C133.8563,22.3446 134.4453,20.5796 135.5793,19.4866 C136.7973,18.2276 138.6033,17.5976 141.3343,17.5976 C142.5103,17.5976 143.6863,17.7656 144.6943,17.9756 L144.6943,16.7566 C144.6943,14.9086 143.8543,13.8996 141.5863,13.8996 C139.8223,13.8996 137.9313,14.4046 136.2513,15.1186 L135.1173,10.4976 C137.3013,9.6156 139.8643,8.9436 142.6783,8.9436 C148.1813,8.9436 150.6603,11.2956 150.6603,16.2946 L150.6603,27.1746 L151.1223,31.0396 L145.8293,31.0396 L145.0733,29.1486 C143.4763,30.5356 141.9223,31.3336 139.6543,31.3336" id="Fill-15"></path>
                    <path d="M160.9892,31.4176 C158.0492,31.4176 155.3182,30.6616 152.9662,29.4006 L154.1842,24.4856 C156.4952,25.7466 158.8042,26.5026 160.9052,26.5026 C162.4602,26.5026 163.3002,25.8306 163.3002,24.9056 C163.3002,23.9816 162.7962,23.5626 159.8552,22.3866 C155.7802,20.7476 153.7642,19.1926 153.7642,15.5386 C153.7642,11.5056 156.5372,8.9016 161.4092,8.9016 C163.8872,8.9016 166.1562,9.4896 168.2152,10.4976 L166.9962,15.4126 C165.1062,14.4466 163.1742,13.8156 161.4092,13.8156 C160.1072,13.8156 159.3932,14.3626 159.3932,15.2446 C159.3932,16.0846 159.8552,16.5046 162.7542,17.6816 C167.3332,19.4866 168.9282,21.1676 168.9282,24.6116 C168.9282,29.1486 165.7362,31.4176 160.9892,31.4176" id="Fill-17"></path>
                    <path d="M172.6221,24.528 L172.6221,14.279 L170.2691,14.279 L170.2691,9.28 L172.6221,9.28 L172.6221,3.567 L178.6711,3.567 L178.6711,9.28 L183.2921,9.28 L183.2921,14.279 L178.6711,14.279 L178.6711,23.646 C178.6711,25.453 179.6381,26.209 181.2751,26.209 C181.9901,26.209 182.6201,26.083 183.2921,25.915 L183.2921,30.872 C182.3681,31.166 181.0651,31.334 179.5541,31.334 C174.9331,31.334 172.6221,29.443 172.6221,24.528" id="Fill-19"></path>
                    <path d="M193.3711,31.4176 C190.4311,31.4176 187.7001,30.6616 185.3481,29.4006 L186.5661,24.4856 C188.8771,25.7466 191.1861,26.5026 193.2871,26.5026 C194.8421,26.5026 195.6821,25.8306 195.6821,24.9056 C195.6821,23.9816 195.1781,23.5626 192.2371,22.3866 C188.1621,20.7476 186.1461,19.1926 186.1461,15.5386 C186.1461,11.5056 188.9191,8.9016 193.7911,8.9016 C196.2691,8.9016 198.5381,9.4896 200.5971,10.4976 L199.3781,15.4126 C197.4881,14.4466 195.5561,13.8156 193.7911,13.8156 C192.4891,13.8156 191.7751,14.3626 191.7751,15.2446 C191.7751,16.0846 192.2371,16.5046 195.1361,17.6816 C199.7151,19.4866 201.3101,21.1676 201.3101,24.6116 C201.3101,29.1486 198.1181,31.4176 193.3711,31.4176" id="Fill-21"></path>
                </g>
            </g>
        </g>
    </g>
</svg>